Simulation
nRows=44
nColumns=15
endheader
time  TH_x TH_y TH_z SC_y  SC_z  SC_x  AC_y  AC_z  AC_x  GH_y  GH_z  GH_yy  EL_x  PS_y
5.745  0.000000  0.000000  0.000000  -51.4475687659087  20.487342857118268  41.60679320002413  70.04318156857376  -8.555723623857428  23.40244829252971  -5.908927281237996  54.06554371834075  -16.95023836435391  18.5436641193619  120.000000
5.80245  0.000000  0.000000  0.000000  -50.00633376137378  19.433249077203904  37.4649014203655  70.5158289099985  -8.491138735989185  23.388404152455028  -6.160886880131979  53.91259521263374  -16.53471108141422  18.849191519348473  120.000000
5.8599  0.000000  0.000000  0.000000  -48.352581456740175  17.95392479720026  32.55310079913687  70.94237270232144  -8.368236612759866  23.46597790919922  -6.651788404955112  53.585763961799785  -15.541265689640797  19.251706522664545  120.000000
5.91735  0.000000  0.000000  0.000000  -46.60256400357312  16.01818073886368  27.10702010705032  71.2036450336743  -8.231228570758237  23.598573797766804  -7.40975620151123  53.13030752420476  -13.902303141146774  19.657022879324476  120.000000
5.9748  0.000000  0.000000  0.000000  -44.88272307648365  13.644877179962503  21.403486920021273  71.18104983761361  -8.144570864551554  23.72344217393156  -8.400922901531438  52.599731978551496  -11.631837266420021  19.95874003626015  120.000000
6.03225  0.000000  0.000000  0.000000  -43.31006412885409  10.903752313697893  15.738454493937802  70.77980816222988  -8.182846180739595  23.75882280807974  -9.527837610707955  52.036059183902175  -8.84249366909388  20.070780084141344  120.000000
6.089700000000001  0.000000  0.000000  0.000000  -41.95836958238201  7.910799572017584  10.403941258172095  69.9579928509795  -8.413302183151895  23.616493834303732  -10.66958050525766  51.448405499799456  -5.727514846796942  19.94853244889803  120.000000
6.14715  0.000000  0.000000  0.000000  -40.81948178868036  4.815635671368496  5.670679174460245  68.74055448112892  -8.877562688109975  23.21650635278813  -11.744578885614738  50.787615068775324  -2.5090144465499944  19.5909779301036  120.000000
6.2046  0.000000  0.000000  0.000000  -39.792216774078554  1.7942610033345947  1.7793615141656012  67.21474321923473  -9.5808070350479  22.502083632098795  -12.74015831517957  49.93730099831265  0.6152873133345111  19.021056766839617  120.000000
6.26205  0.000000  0.000000  0.000000  -38.74430578771584  -0.9515791554831768  -1.0716389513437865  65.50876861026164  -10.48995759666822  21.45534931382235  -13.662769505189685  48.74245892387185  3.4963009683653437  18.282174422205465  120.000000
6.3195  0.000000  0.000000  0.000000  -37.625955211541395  -3.209140668145963  -2.7665184251314714  63.77251381597643  -11.542145367241956  20.104573326972254  -14.434848712038368  47.07498820018973  6.0184022638329076  17.447769123441784  120.000000
6.37695  0.000000  0.000000  0.000000  -36.537496695221044  -4.812592192857696  -3.318050510660813  62.1469461761444  -12.669632920085842  18.512678910561267  -14.865062139204895  44.89310847894577  8.091847434155447  16.628788764488068  120.000000
6.4344  0.000000  0.000000  0.000000  -35.67283284324321  -5.7147531762920885  -2.8677550684746618  60.712393118965196  -13.823344869568714  16.74475403700786  -14.761254118860647  42.25999437670573  9.681108075582925  15.940805145985012  120.000000
6.49185  0.000000  0.000000  0.000000  -35.15395824877797  -5.997467172255615  -1.6278137552113217  59.47236102908068  -14.97896627574149  14.850238703557855  -14.074371666372995  39.32162896740298  10.833619691988025  15.448424727145047  120.000000
6.549300000000001  0.000000  0.000000  0.000000  -34.934763589106566  -5.8254980974319475  0.18346296079267824  58.39345992613625  -16.12301682838294  12.872713037062736  -12.928835044982014  36.255056738676025  11.672032203740988  15.17717717653319  120.000000
6.60675  0.000000  0.000000  0.000000  -34.88402634121443  -5.390682126759382  2.358414064818191  57.43929485967885  -17.242125278508432  10.85499260612459  -11.520328264304512  33.227351100525986  12.324719404245888  15.12783342192427  120.000000
6.6642  0.000000  0.000000  0.000000  -34.90806420798971  -4.866771279890965  4.700351604166077  56.56790695893498  -18.325549057146105  8.833362007603048  -10.013875720805352  30.380800041984966  12.867391043971383  15.284282393660353  120.000000
6.72165  0.000000  0.000000  0.000000  -34.96082856508131  -4.381334489440028  7.039925081057354  55.74266216455729  -19.364051179310916  6.836343307310549  -8.535154698951896  27.825815324316224  13.33624846154876  15.614726752124602  120.000000
6.7791  0.000000  0.000000  0.000000  -35.001339105133475  -4.008243929511742  9.250601756768496  54.93967723458705  -20.34652792951443  4.8912418301291956  -7.206329798889432  25.631496396759907  13.781244185458391  16.064222223815335  120.000000
6.83655  0.000000  0.000000  0.000000  -35.003793289946174  -3.775308959591993  11.248104745351892  54.14935236939805  -21.2590651954269  3.029488813273087  -6.133031284284415  23.82535288562024  14.269712597690582  16.55716958864997  120.000000
6.894  0.000000  0.000000  0.000000  -34.969905782651004  -3.677502125096443  12.981292131374481  53.37793945766457  -22.086785913136048  1.2862771699326254  -5.366469164694723  22.398959288195716  14.85079228628605  17.0078087554647  120.000000
6.95145  0.000000  0.000000  0.000000  -34.91026132568849  -3.694188948702066  14.43355088831914  52.64159456881879  -22.818352856285127  -0.3059047349945912  -4.89910084362961  21.31059572007749  15.5351874249345  17.33760999980172  120.000000
7.008900000000001  0.000000  0.000000  0.000000  -34.8287044880325  -3.79548500394382  15.624541942011628  51.958784701552545  -23.45151180502581  -1.7288737647233439  -4.690538371688189  20.49585565669014  16.298529686113238  17.501513973539485  120.000000
7.06635  0.000000  0.000000  0.000000  -34.727672854145425  -3.943556501041743  16.594434769817834  51.3390707091524  -23.991496170852127  -2.979451154979993  -4.695140814953624  19.888663179833557  17.09718986064093  17.508945204739252  120.000000
7.1238  0.000000  0.000000  0.000000  -34.617108365123  -4.103808836393743  17.385594873338928  50.785558267946804  -24.446566093122193  -4.063987315582382  -4.860234965014101  19.438359522218168  17.866950812211254  17.420126064376134  120.000000
7.18125  0.000000  0.000000  0.000000  -34.51057756289077  -4.251893252619654  18.03594348796612  50.29880132372189  -24.826429626517  -4.994103013161475  -5.129646202855384  19.110501770359328  18.537105451010323  17.319996605235264  120.000000
7.2387  0.000000  0.000000  0.000000  -34.41961207206279  -4.374085018361373  18.576464387386366  49.87805777431986  -25.141129660750664  -5.783455742729644  -5.452730377788736  18.88238368765654  19.052252216766632  17.28238583645386  120.000000
7.29615  0.000000  0.000000  0.000000  -34.34896052900784  -4.465721322120386  19.030428406152076  49.52152967180295  -25.399936738771384  -6.4459337858924  -5.7945471380677755  18.738292318808796  19.392978751553343  17.344019312048573  120.000000
7.3536  0.000000  0.000000  0.000000  -34.297255768147046  -4.529551360742655  19.41403011792692  49.22654771501697  -25.611137137943132  -6.994914079146196  -6.138077024617012  18.66635300719125  19.57923681890487  17.498441142384237  120.000000
7.41105  0.000000  0.000000  0.000000  -34.259867849190535  -4.572697676808499  19.73782380720958  48.98841410109055  -25.78188098523415  -7.443922103864699  -6.482327075752754  18.6564037159831  19.660598483165153  17.71246874419981  120.000000
7.468500000000001  0.000000  0.000000  0.000000  -34.23200883735623  -4.602770411978774  20.008344607646702  48.800526603322396  -25.918671888914286  -7.8062862070050985  -6.836098545025609  18.698660684083922  19.696586446509894  17.948174747376893  120.000000
7.52595  0.000000  0.000000  0.000000  -34.21078750290594  -4.625456866682873  20.229624963348382  48.65425574482672  -26.027413422692913  -8.094888402346152  -7.211789043333968  18.782556532955834  19.738653898159487  18.179522056857493  120.000000
7.5834  0.000000  0.000000  0.000000  -34.19435473481366  -4.644276282560648  20.404739126537986  48.54042642864814  -26.11310582823031  -8.321850815691713  -7.620854126902952  18.897154010445654  19.819661718637704  18.397512252609236  120.000000
7.64085  0.000000  0.000000  0.000000  -34.18019458327317  -4.660981061193746  20.537315561966647  48.45099904781704  -26.179572069862473  -8.497735408347902  -8.071450064111596  19.03182118212822  19.95336621982852  18.605444314955843  120.000000
7.6983  0.000000  0.000000  0.000000  -34.16712809142008  -4.675236054802459  20.631979240275275  48.37970761480565  -26.229735760513773  -8.63086627286552  -8.56578774527627  19.17650182951111  20.13815014576626  18.81070124336117  120.000000
7.75575  0.000000  0.000000  0.000000  -34.15549388639177  -4.685238251787128  20.694066979156414  48.322105659931545  -26.266657078345837  -8.72794935351292  -9.100515618067805  19.323360973132996  20.363841110928067  19.017834224721522  120.000000
7.8132  0.000000  0.000000  0.000000  -34.14561928554637  -4.688997318431351  20.7298368855305  48.27515957836056  -26.2928553542995  -8.794607041825035  -9.670358800007955  19.466133634454547  20.619782326221944  19.225824935342693  120.000000
7.87065  0.000000  0.000000  0.000000  -34.138320971170025  -4.684886949225895  20.745928726325815  48.237373685721955  -26.310294169741436  -8.836230165743563  -10.260076087462542  19.599481377102627  20.88943120746836  19.43021531629792  120.000000
7.928100000000001  0.000000  0.000000  0.000000  -34.13312950536264  -4.67503827012604  20.74854096066497  48.20745402178911  -26.320592525900924  -8.85927829038953  -10.844207809762995  19.719260704746183  21.1515556822026  19.627497304836844  120.000000
7.98555  0.000000  0.000000  0.000000  -34.12748699895233  -4.6650369467011625  20.74278348244602  48.18353142241097  -26.326868717457586  -8.870822040340876  -11.393081875003382  19.821821736907243  21.384272866681005  19.819781534599684  120.000000
8.043  0.000000  0.000000  0.000000  -34.119146577879114  -4.660925155822478  20.728962881706977  48.163670460969186  -26.33134984122109  -8.87559918347821  -11.879823458154629  19.903860231233836  21.570463395146867  20.017992645169066  120.000000
8.10045  0.000000  0.000000  0.000000  -34.10860151202977  -4.668315765986978  20.69079176894643  48.152710683158205  -26.31593188835394  -8.868929351115906  -12.294114623734934  19.958106765698997  21.707080923382602  20.238565310445374  120.000000
8.1579  0.000000  0.000000  0.000000  -34.0980634114223  -4.686252029368009  20.595437015602187  48.16339268698591  -26.238673095688164  -8.83371648774885  -12.663680589589001  19.974388169875834  21.82082591880599  20.49409613995322  120.000000
8.21535  0.000000  0.000000  0.000000  -34.09100694815319  -4.703035012354877  20.408364532278334  48.20549430062743  -26.05845576651821  -8.7475731496751  -13.057076506664368  19.95365907317401  21.963527270230482  20.777790802996453  120.000000
